<svg id="Layer_1" data-name="Layer 1" xmlns="http://www.w3.org/2000/svg" viewBox="0 0 480 1080"><defs><style>.cls-1{fill:#8fafc4;}.cls-2{fill:#a0b777;}.cls-3{fill:#010101;}.cls-4{fill:#786749;}.cls-5{fill:#758d53;}.cls-6{fill:#8ba663;}.cls-7{fill:#665436;}.cls-8{fill:#847357;}.cls-9{fill:#917f66;}.cls-10{fill:#fff;opacity:0.53;}</style></defs><rect class="cls-1" width="480" height="1079.82"/><rect class="cls-1" width="480" height="1079.82"/><path class="cls-2" d="M459,971.64s12.8,4.64,21,4.64v27.25l-3.4,4.15L461,997.21l-1.91-25" transform="translate(0)"/><path class="cls-2" d="M362.28,934.06l66.57,28.31s-26.31,18.74-37,33.57c-28.45-4.68-45.55-8.4-45.55-8.4Z" transform="translate(0)"/><path class="cls-3" d="M462.45,917.12s-4.75-9.16-4.62-11.49c.64-1.85,4.09-5.55,1-11.74-7.06-6.83-23.78-6.57-26.08-5.47s-4.7,8.3-4.7,8.3,2.49,4.89,2.7,5.11S453.58,918.58,462.45,917.12Z" transform="translate(0)"/><path class="cls-3" d="M446.86,1002.06s24.89,2.67,26.59,1.91c-2.63-5.7-14.47-28.75-14.47-32.33s1.87-9.7,4.17-9.7,4.94,2.3,2.9-8.42c-.43-11.57-2.47-26.12-.52-27.66s1.83-4.72,1.83-4.72l-12.89-3.53-13.11,3.66S439,937,439.41,938.37s5.27,13.7,5.61,14.21-13.78.51-13.78.51.34,10.13.76,10.64,10.64,33.78,10.64,33.78Z" transform="translate(0)"/><path class="cls-3" d="M347.7,644.21s-19.87-55.31-38.08-71.31c3.91-8.68,25-41,11.4-65-13.61-21.78-16.68-24.84-16.68-24.84S238,459.73,225.53,463.13s-64,11.92-76.08,15.32-28.77,23.15-28.77,23.15,2.22,47.48,1.2,49.86S347.7,644.21,347.7,644.21Z" transform="translate(0)"/><path class="cls-3" d="M387.49,1079.82s-38.3-85-38.55-92.43,11.74-37.91,12.51-46.4.57-12.83,11.17-14,22.27-4,22.34-11.1c.05-5.53-3.16-11-4.33-16.3-1.6-7.31-2.94-14.69-4.18-22.06-3.47-20.6-7-42.09-8.4-62.93-.43-6.46-3.94-28.93-6.1-40.58s1-17.19-4.2-37.79c-1.87-20-2.39-16.59-2.73-24.5s1-7.06,8.34-16.6c7-10.29,11.42-22.68,10.31-24.74s-120.86-5.55-120.86-5.55-46.3,33-44.25,36.08,11.4,38.8,11.4,38.8l65.7,155.21-142.3-12.08s3.75,20.93,5.11,23.48l119.75,173.53Z" transform="translate(0)"/><path class="cls-4" d="M388.48,994s28.5-27.45,40.37-31.66V935.82s-2.65-.77-2.74-7.85,1.08-5,1.08-5V886.3s3.32-5.94,13.73-5.17,17.36,3.64,17.93,12.76c-2.49-1-5.07-2.71-13.72-2.36-8.9.48-14.17,1.69-15.22,7.34,2.49,2,10.27,4.12,11.77,3.92,1.06-1.11,2.33-7.11,7.28-7.08,2.81,0,4.17.56,5.14,9,2.5,6.73,6.63,11.5,7.86,12,1.28,1.32,4.68,2.94,5.4,4.47-2.25,2.17-4.31,5.24-9.12,4.6-.11-1.94-.39-1.79,1.36-1.94-1.55-1.68,0-3.06-7-1.06-5.75,2.93-6.28,4.08,0,6.66,5.42,2.42,8.59,2.51,9.19,3.4s-.15,2.85-2.47,3-9.66-1.15-9.47,1.26c2.58,1.19,9.15,7.93,9.62,14.44.94,6.42,2.85,9.91,1.28,10.25-1.62-.08-13.24.39-24.73-4.76-1.1-.38-2.72-.09-1.7.89s11.23,8.38,11.92,9.83.64,34.33.64,34.33S391.72,997.05,388.48,994Z" transform="translate(0)"/><path class="cls-3" d="M119.83,746.32s4.34,7.4,6.81,8.08l-.08-4.25-3.07-4.77Z" transform="translate(0)"/><polygon class="cls-3" points="130.32 761.47 134.41 767.91 138.04 765.81 135.56 759.49 130.32 761.47"/><path class="cls-3" d="M137.22,771s5.52,4.53,9.63,2.68v-6.64" transform="translate(0)"/><path class="cls-2" d="M0,843V868.3s142.64,66.63,149.62,65.75V889.43S6,849.07,0,843Z" transform="translate(0)"/><path class="cls-5" d="M480,1079.82H387.49s-32.17-79.16-38.55-92.43c3.13.81,112.5,19.65,131.06,16.14Z" transform="translate(0)"/><path class="cls-6" d="M0,1067V868.3l153.36,67.44S21.27,1039.89,0,1067Z" transform="translate(0)"/><path class="cls-4" d="M0,1079.82V1067s76.43-85.17,149.62-128.4V881.45s-2.77-1.92-2.77-8.49V767.08l-9.63,4-2.81-3.13,3.64-2.1-2.49-6.32-5.24,2-3.68-7.07-.08-4.25-3.07-4.77-3.66.94s-6.55-16.76-6.55-32.21,4-27.69,6.64-29.48c-.26-7.26,0-11.34,0-11.36.28-4.51-4.14-13-5-18-1.72-10.55-3.51-21.1-5.27-31.64l-1.42-8.51c-1.69-10.17-3.39-20.34-4.69-30.57a481.83,481.83,0,0,1-3.42-58.83c-.07-18.24-1.43-38.41,1.7-56.41,2.38-13.64,11.58-21.81,22.39-29.91,32.62-24.44,71.76-26.79,110.47-19,18.86,3.82,42.6,9.31,56.76,23.19,9,8.79,13.27,20.89,17.64,32.37,2.15,5.64,4.19,11.29,6,17.06.43,1.37,1.52,8.93,2.75,9.66-9.38-5.55-28.72-16.27-50.42-17.61s-45.07-1.28-51.51-1.4-21.9.76-40.53,7.21-43.13,16.61-49,50.82A352.52,352.52,0,0,1,164.6,548c16.23,3.56,30.65,12.13,47.72,11.18-.68,0,4.93-15.94,5.69-17.32a44.5,44.5,0,0,1,12.31-14.27c8.27-6.3,19.79-16,31-15.13,3.74.42,3.32.08,3.57,4.85.89,16.56,10.83,33.49,18.65,47.6,13.47,24.31,27.92,50.6,49.18,68.92,7,6,13.2,9.11,21.35,12.65,5.35,2.32,34.36,15.77,29.17,24.59a7.51,7.51,0,0,1-3.31,2.64c-6.14,3-13.14,3.7-19.52,6.13-11.38,4.32-26,25.19-39.27,19.26a5.43,5.43,0,0,1-2.69-2.3c-1.34-2.56.52-5.56,2.29-7.84l11.83-15.17c-13.7.41-27.48,1.36-40.72,4.89-9.37,2.5-41.78,13.32-35.57,27.63a17.12,17.12,0,0,0,6.34,7c4.6,3.14,9.93,5,15.18,6.86l12,4.21c10.46,3.67,20.93,7.35,31.49,10.72,8,2.55,20,4.77,25.31,11.91a3,3,0,0,1,.09,3.73c-1,1.06-2.69.88-4.13.68a53,53,0,0,0-17.36.46c-.53.1-1.16.31-1.26.85a1.21,1.21,0,0,0,.33.89c1.75,2.17,5,1.85,7.83,2.05a16.49,16.49,0,0,1,10.31,4.7C329,762,315.48,762,302.08,763c-10.16.78-19.59,3.35-29.4,4.94-5.54.9,1.67,5.26,3.35,6.3,4.76,2.93,10,4.92,14.63,8,13,8.57,24.55,19.93,32.23,33.57,15,26.62,14.28,59.27,25.36,87.74,1.86,4.78,9.43,18.92,3.81,22.82-1.31.91-4.68.4-6.18.4-6.78,0-13.61-.69-20.36-1.29-22.18-2-44.3-4.91-66.28-8.48-20.17-3.29-40.3-7.11-60.06-12.32-14.68-3.86-30.6-8.08-43.39-16.59,6.64,9.32,82.34,66.63,104.94,81.95,3.06,11.74,17.49,109.79,17.49,109.79Z" transform="translate(0)"/><path class="cls-7" d="M260.73,970s-50.7,110.15-68.82,110c80.43-.18,86.31-.18,86.31-.18Z" transform="translate(0)"/><path class="cls-7" d="M259.33,426.45s-11.91,54.37-25.88,57.48c42.25,2.16,51,1.84,84.4,18.81C309.62,477.31,304.54,437.07,259.33,426.45Z" transform="translate(0)"/><path class="cls-8" d="M49.16,1017.35s20.46,19.87,17.91,62.22c-27.58.25-67.07.25-67.07.25V1067Z" transform="translate(0)"/><path class="cls-9" d="M119.92,684.63s-17.17,16.78-.09,61.69l3.66-.94S115.41,692.54,119.92,684.63Z" transform="translate(0)"/><path class="cls-7" d="M346.13,897.64s-15,20-15.05,28.33c7.91.59,17.86.93,17.86.93s6.05,2.33,4.56-9.69C349.26,905.92,347,900.29,346.13,897.64Z" transform="translate(0)"/><path class="cls-9" d="M102.82,465.26s135.83-8.81,156.51-38.81c-.33.48-12.18-3.3-13.45-3.62-4.77-1.17-9.57-2.23-14.4-3.14a198.64,198.64,0,0,0-29.37-3.48,130.45,130.45,0,0,0-56,9.83,132.49,132.49,0,0,0-23,12.32C113.39,445,106.91,454.26,102.82,465.26Z" transform="translate(0)"/><rect class="cls-10" width="480" height="1079.82"/></svg>